<mxfile host="Electron" modified="2023-08-11T10:28:55.095Z" agent="Mozilla/5.0 (X11; Linux x86_64) AppleWebKit/537.36 (KHTML, like Gecko) draw.io/21.6.5 Chrome/114.0.5735.243 Electron/25.3.1 Safari/537.36" etag="V5SZy5kIE-Wwl8mXHvmE" version="21.6.5" type="device">
  <diagram name="第 1 页" id="-imKoAK45Y_XJNsxU4IW">
    <mxGraphModel dx="1181" dy="509" grid="1" gridSize="10" guides="1" tooltips="1" connect="1" arrows="1" fold="1" page="0" pageScale="1" pageWidth="827" pageHeight="1169" math="0" shadow="0">
      <root>
        <mxCell id="0" />
        <mxCell id="1" parent="0" />
        <mxCell id="E1SQuPhCcywUcsQI5Syf-5" value="" style="edgeStyle=none;curved=1;rounded=0;orthogonalLoop=1;jettySize=auto;html=1;fontSize=12;startSize=8;endSize=8;" parent="1" source="E1SQuPhCcywUcsQI5Syf-2" target="E1SQuPhCcywUcsQI5Syf-4" edge="1">
          <mxGeometry relative="1" as="geometry" />
        </mxCell>
        <mxCell id="E1SQuPhCcywUcsQI5Syf-2" value="血红素" style="text;html=1;align=center;verticalAlign=middle;resizable=0;points=[];autosize=1;strokeColor=none;fillColor=none;fontSize=16;" parent="1" vertex="1">
          <mxGeometry x="50" y="10" width="70" height="30" as="geometry" />
        </mxCell>
        <mxCell id="E1SQuPhCcywUcsQI5Syf-12" value="" style="edgeStyle=none;curved=1;rounded=0;orthogonalLoop=1;jettySize=auto;html=1;fontSize=12;startSize=8;endSize=8;" parent="1" source="E1SQuPhCcywUcsQI5Syf-4" target="E1SQuPhCcywUcsQI5Syf-11" edge="1">
          <mxGeometry relative="1" as="geometry" />
        </mxCell>
        <mxCell id="E1SQuPhCcywUcsQI5Syf-4" value="胆绿素" style="text;html=1;align=center;verticalAlign=middle;resizable=0;points=[];autosize=1;strokeColor=none;fillColor=none;fontSize=16;" parent="1" vertex="1">
          <mxGeometry x="50" y="160" width="70" height="30" as="geometry" />
        </mxCell>
        <mxCell id="E1SQuPhCcywUcsQI5Syf-6" value="HO&lt;br&gt;血红素加氧酶" style="text;html=1;align=center;verticalAlign=middle;resizable=0;points=[];autosize=1;strokeColor=#b85450;fillColor=#f8cecc;fontSize=16;rounded=1;" parent="1" vertex="1">
          <mxGeometry x="-50" y="67" width="120" height="50" as="geometry" />
        </mxCell>
        <mxCell id="E1SQuPhCcywUcsQI5Syf-11" value="胆红素" style="text;html=1;align=center;verticalAlign=middle;resizable=0;points=[];autosize=1;strokeColor=none;fillColor=none;fontSize=16;" parent="1" vertex="1">
          <mxGeometry x="50" y="260" width="70" height="30" as="geometry" />
        </mxCell>
        <mxCell id="E1SQuPhCcywUcsQI5Syf-14" value="胆绿素还原酶" style="text;html=1;align=center;verticalAlign=middle;resizable=0;points=[];autosize=1;strokeColor=#d79b00;fillColor=#ffe6cc;fontSize=16;rounded=1;" parent="1" vertex="1">
          <mxGeometry x="-50" y="210" width="120" height="30" as="geometry" />
        </mxCell>
        <mxCell id="E1SQuPhCcywUcsQI5Syf-16" style="edgeStyle=none;curved=1;rounded=0;orthogonalLoop=1;jettySize=auto;html=1;fontSize=12;startSize=8;endSize=8;" parent="1" source="E1SQuPhCcywUcsQI5Syf-15" target="E1SQuPhCcywUcsQI5Syf-11" edge="1">
          <mxGeometry relative="1" as="geometry">
            <Array as="points">
              <mxPoint x="85" y="210" />
            </Array>
          </mxGeometry>
        </mxCell>
        <mxCell id="E1SQuPhCcywUcsQI5Syf-15" value="NADPH" style="text;html=1;align=center;verticalAlign=middle;resizable=0;points=[];autosize=1;strokeColor=none;fillColor=none;fontSize=16;" parent="1" vertex="1">
          <mxGeometry x="130" y="190" width="80" height="30" as="geometry" />
        </mxCell>
        <mxCell id="oWKESSlF1ACzG6L2Ly6o-1" value="" style="group;fontSize=16;" vertex="1" connectable="0" parent="1">
          <mxGeometry x="85" y="42" width="129.9999999999999" height="115" as="geometry" />
        </mxCell>
        <mxCell id="oWKESSlF1ACzG6L2Ly6o-2" value="&lt;div style=&quot;border-color: var(--border-color); text-align: left;&quot;&gt;3 O&lt;sub style=&quot;border-color: var(--border-color); background-color: initial;&quot;&gt;2&lt;/sub&gt;&lt;/div&gt;&lt;div style=&quot;border-color: var(--border-color); text-align: left;&quot;&gt;&lt;span style=&quot;border-color: var(--border-color); background-color: initial;&quot;&gt;3 NADPH&lt;/span&gt;&lt;/div&gt;" style="text;html=1;align=center;verticalAlign=middle;resizable=0;points=[];autosize=1;strokeColor=none;fillColor=none;fontSize=16;" vertex="1" parent="oWKESSlF1ACzG6L2Ly6o-1">
          <mxGeometry x="49.999999999999886" y="-20" width="90" height="60" as="geometry" />
        </mxCell>
        <mxCell id="oWKESSlF1ACzG6L2Ly6o-3" value="&lt;div style=&quot;border-color: var(--border-color); text-align: left;&quot;&gt;CO&lt;/div&gt;&lt;div style=&quot;border-color: var(--border-color); text-align: left;&quot;&gt;&lt;span style=&quot;border-color: var(--border-color); background-color: initial;&quot;&gt;Fe&lt;/span&gt;&lt;sup style=&quot;border-color: var(--border-color); background-color: initial;&quot;&gt;2+&lt;/sup&gt;&lt;/div&gt;" style="text;html=1;align=center;verticalAlign=middle;resizable=0;points=[];autosize=1;strokeColor=none;fillColor=none;fontSize=16;" vertex="1" parent="oWKESSlF1ACzG6L2Ly6o-1">
          <mxGeometry x="49.999999999999886" y="70" width="60" height="60" as="geometry" />
        </mxCell>
        <mxCell id="oWKESSlF1ACzG6L2Ly6o-4" value="" style="endArrow=classic;html=1;rounded=0;fontSize=12;startSize=8;endSize=8;edgeStyle=orthogonalEdgeStyle;curved=1;startArrow=none;startFill=0;endFill=1;" edge="1" parent="oWKESSlF1ACzG6L2Ly6o-1" source="oWKESSlF1ACzG6L2Ly6o-2" target="oWKESSlF1ACzG6L2Ly6o-3">
          <mxGeometry width="50" height="50" relative="1" as="geometry">
            <mxPoint x="80" y="10" as="sourcePoint" />
            <mxPoint x="80" y="90" as="targetPoint" />
            <Array as="points">
              <mxPoint y="10" />
              <mxPoint y="90" />
            </Array>
          </mxGeometry>
        </mxCell>
        <mxCell id="oWKESSlF1ACzG6L2Ly6o-5" value="单核吞噬系统细胞微粒体" style="edgeLabel;html=1;align=center;verticalAlign=middle;resizable=0;points=[];fontSize=16;" vertex="1" connectable="0" parent="oWKESSlF1ACzG6L2Ly6o-4">
          <mxGeometry x="-0.0736" y="2" relative="1" as="geometry">
            <mxPoint x="93" y="6" as="offset" />
          </mxGeometry>
        </mxCell>
      </root>
    </mxGraphModel>
  </diagram>
</mxfile>
